<!DOCTYPE svg PUBLIC "-//W3C//DTD SVG 1.1//EN" "http://www.w3.org/Graphics/SVG/1.1/DTD/svg11.dtd">
<!-- Uploaded to: SVG Repo, www.svgrepo.com, Transformed by: SVG Repo Mixer Tools -->
<svg width="800px" height="800px" viewBox="-102.4 -102.4 1228.80 1228.80" class="icon" version="1.1" xmlns="http://www.w3.org/2000/svg" fill="#000000">
<g id="SVGRepo_bgCarrier" stroke-width="0"/>
<g id="SVGRepo_tracerCarrier" stroke-linecap="round" stroke-linejoin="round"/>
<g id="SVGRepo_iconCarrier">
<path d="M853.333333 960a21.333333 21.333333 0 0 1-11.306666-3.242667L512 750.506667 181.973333 956.8A21.290667 21.290667 0 0 1 149.333333 938.666667V42.666667a21.333333 21.333333 0 0 1 21.333334-21.333334h682.666666a21.333333 21.333333 0 0 1 21.333334 21.333334v896a21.333333 21.333333 0 0 1-21.333334 21.333333z" fill="#5F1E91"/>
<path d="M640 362.666667h-106.666667v-106.666667a21.333333 21.333333 0 1 0-42.666666 0v106.666667h-106.666667a21.333333 21.333333 0 1 0 0 42.666666h106.666667v106.666667a21.333333 21.333333 0 1 0 42.666666 0v-106.666667h106.666667a21.333333 21.333333 0 1 0 0-42.666666z" fill="#FFFFFF"/>
</g>
</svg>